<svg width="342" height="180" viewBox="0 0 342 180" fill="none" xmlns="http://www.w3.org/2000/svg">
<rect width="342" height="180" fill="#E2E8F0"/>
<path d="M207.95 101.5L134.05 101.5L171 37.5L207.95 101.5ZM139.24 98.5977L202.88 98.5977L171.06 43.4844L139.24 98.5977ZM197.49 95.4863L144.63 95.4863L171.06 49.707L197.49 95.4863ZM165.754 63.1123L158.56 75.6445L161.246 75.6445C165.564 75.6445 168.092 77.5234 168.768 79.7686C169.455 82.0518 168.527 85.6579 163.838 89.7002L160.665 92.4346L164.854 92.4346C169.724 92.4345 173.37 91.0711 175.865 88.8506C178.357 86.6334 179.559 83.6843 179.765 80.7813C179.968 77.8979 179.196 74.9897 177.648 72.7666C176.579 71.2302 175.107 69.9867 173.32 69.3574L177.59 63.1123L165.754 63.1123ZM171.693 66.2236L167.729 72.0215L170.678 72.0215C172.453 72.0215 173.988 72.9559 175.094 74.5439C176.21 76.1481 176.818 78.343 176.661 80.5625C176.506 82.7624 175.606 84.9163 173.797 86.5264C172.645 87.5518 171.065 88.4069 168.96 88.8916C171.727 85.4431 172.667 81.9276 171.747 78.8711C170.742 75.5329 167.72 73.3841 163.815 72.7383L167.556 66.2236L171.693 66.2236Z" fill="#90A1B9"/>
<path d="M134.016 117.398V138.609H131.391V117.398H134.016ZM122.602 118.945C125.789 118.945 128.109 121.852 128.133 126.422C128.109 131.039 125.789 133.922 122.602 133.922C119.391 133.922 117.07 131.039 117.07 126.422C117.07 121.852 119.391 118.945 122.602 118.945ZM122.602 121.289C120.797 121.289 119.578 123.188 119.578 126.422C119.578 129.68 120.797 131.578 122.602 131.578C124.383 131.578 125.602 129.68 125.602 126.422C125.602 123.188 124.383 121.289 122.602 121.289ZM148.336 119.391V133.43H138.258V119.391H148.336ZM140.836 121.43V131.344H145.805V121.43H140.836ZM154.758 117.398V138.609H152.133V117.398H154.758ZM165.867 123.422C165.867 126.891 167.906 130.547 171.328 131.977L169.898 134.039C167.391 132.961 165.562 130.734 164.602 128.039C163.617 130.945 161.766 133.383 159.281 134.555L157.781 132.516C161.133 130.969 163.219 127.031 163.219 123.422V121.641H158.555V119.484H170.508V121.641H165.867V123.422ZM175.5 117.398V138.586H172.875V117.398H175.5ZM190.336 129.797V132.07H193.125V129.797H195.539V136.523C198.023 135.48 199.172 133.336 199.172 131.32V129.633H201.773V131.32C201.773 133.523 202.898 135.656 205.523 136.547L204.188 138.492C202.324 137.824 201.117 136.535 200.461 134.93C199.746 136.488 198.539 137.777 196.781 138.492L195.539 136.641V138.328H187.898V129.797H190.336ZM190.336 136.336H193.125V134.016H190.336V136.336ZM191.414 118.266C194.145 118.266 196.301 119.789 196.852 122.086H200.672V117.398H203.273V128.625H200.672V124.242H196.852C196.336 126.598 194.156 128.156 191.414 128.156C188.156 128.156 185.812 126.117 185.812 123.188C185.812 120.281 188.156 118.266 191.414 118.266ZM191.414 120.422C189.586 120.422 188.297 121.5 188.297 123.188C188.297 124.898 189.586 126.023 191.414 126.023C193.195 126.023 194.461 124.898 194.484 123.188C194.461 121.5 193.195 120.422 191.414 120.422ZM215.906 117.82C220.594 117.82 223.523 119.367 223.547 121.945C223.523 124.477 220.594 126 215.906 125.977C211.266 126 208.266 124.477 208.266 121.945C208.266 119.367 211.266 117.82 215.906 117.82ZM215.906 119.859C212.812 119.859 210.961 120.586 210.984 121.945C210.961 123.234 212.812 123.938 215.906 123.961C219 123.938 220.852 123.234 220.852 121.945C220.852 120.586 219 119.859 215.906 119.859ZM223.242 131.203V138.328H208.547V131.203H223.242ZM211.125 133.266V136.219H220.711V133.266H211.125ZM225.586 127.406V129.516H206.273V127.406H225.586Z" fill="#90A1B9"/>
</svg>
