<svg preserveAspectRatio="none" width="100%" height="100%" overflow="visible" style="display: block;" viewBox="0 0 62.6374 18" fill="none" xmlns="http://www.w3.org/2000/svg">
<g id="Layer 1">
<path id="SDRS" fill-rule="evenodd" clip-rule="evenodd" d="M6.11303 9.95356C3.15438 8.99978 1.64895 7.19004 2.06812 4.89119C2.63408 1.78529 5.40517 4.99189e-06 10.6652 4.99189e-06H14.8487L13.1427 3.05699H10.794C6.97747 3.05699 5.72322 3.76622 5.51771 4.89119C5.30405 6.06507 6.39356 6.79875 9.4566 7.85035C12.2424 8.80413 13.9745 10.4427 13.5521 12.766C12.9372 16.1409 10.0552 17.9996 4.86857 17.9996H0L0.556175 14.9426H4.71525C8.55628 14.9426 9.86272 14.0866 10.0943 12.8149C10.339 11.4698 9.14019 10.9318 6.11303 9.95356ZM15.1032 17.9996L18.3799 4.99189e-06H24.276C28.6552 4.99189e-06 31.6857 3.37492 30.7266 8.77968C29.7317 14.1111 25.8841 18.0485 21.2195 17.9996H15.1032ZM21.2814 3.00808L19.1008 14.9915H21.0091C23.8225 14.9915 26.4795 13.1573 27.277 8.77968C27.9718 4.96455 26.3653 3.03254 23.2142 3.00808H21.2814ZM42.4536 4.99189e-06C46.5148 4.99189e-06 48.3089 2.10321 47.6467 5.74714C47.2814 7.75253 45.9146 9.88019 43.6279 10.8829L45.6471 17.5349L45.5623 17.9996H41.9415L39.9989 11.4698H35.8888L34.6998 17.9996H31.2502L34.5269 4.99189e-06H42.4536ZM37.4154 3.08145L36.4498 8.38838H40.6089C42.8108 8.38838 43.8954 7.26341 44.1727 5.74714C44.4173 4.40207 43.8497 3.08145 41.5745 3.08145H37.4154ZM53.9017 9.95356C50.943 8.99978 49.4376 7.19004 49.8568 4.89119C50.4227 1.78529 53.1938 4.99189e-06 58.4538 4.99189e-06H62.6374L60.9313 3.05699H58.5827C54.7661 3.05699 53.5118 3.76622 53.3063 4.89119C53.0927 6.06507 54.1822 6.79875 57.2452 7.85035C60.031 8.80413 61.7631 10.4427 61.3407 12.766C60.7258 16.1409 57.8438 17.9996 52.6572 17.9996H47.7886L48.3448 14.9426H52.5039C56.3449 14.9426 57.6514 14.0866 57.883 12.8149C58.1276 11.4698 56.9288 10.9318 53.9017 9.95356Z" fill="var(--fill-0, #62748E)"/>
</g>
</svg>
