<svg preserveAspectRatio="none" width="100%" height="100%" overflow="visible" style="display: block;" viewBox="0 0 120 48" fill="none" xmlns="http://www.w3.org/2000/svg">
<g id="Logo and Title">
<path id="SDRS" fill-rule="evenodd" clip-rule="evenodd" d="M26.4052 13.2714C22.4618 11.9997 20.4553 9.58672 21.014 6.52158C21.7683 2.38038 25.4617 0 32.4724 0H38.0484L35.7745 4.07598H32.6442C27.5573 4.07598 25.8856 5.02161 25.6117 6.52158C25.327 8.08675 26.7791 9.06499 30.8616 10.4671C34.5745 11.7388 36.8832 13.9236 36.3202 17.0213C35.5006 21.5212 31.6594 23.9994 24.7465 23.9994H18.2576L18.9989 19.9234H24.5422C29.6616 19.9234 31.4029 18.7821 31.7116 17.0865C32.0377 15.2931 30.4399 14.5757 26.4052 13.2714ZM38.3875 23.9994L42.7548 0H50.6133C56.4501 0 60.4891 4.49989 59.2109 11.7062C57.8848 18.8147 52.7567 24.0646 46.5395 23.9994H38.3875ZM46.6221 4.01077L43.7156 19.9886H46.259C50.0089 19.9886 53.5502 17.543 54.6132 11.7062C55.5392 6.6194 53.398 4.04338 49.1981 4.01077H46.6221ZM74.8409 0C80.2538 0 82.6451 2.80428 81.7625 7.66285C81.2756 10.3367 79.4539 13.1736 76.4061 14.5105L79.0974 23.3798L78.9843 23.9994H74.1583L71.5693 15.2931H66.0912L64.5064 23.9994H59.9087L64.276 0H74.8409ZM68.1259 4.10859L66.839 11.1845H72.3823C75.317 11.1845 76.7626 9.68454 77.1322 7.66285C77.4583 5.86942 76.7018 4.10859 73.6692 4.10859H68.1259ZM90.0993 13.2714C86.1559 11.9997 84.1494 9.58672 84.7081 6.52158C85.4624 2.38038 89.1558 0 96.1665 0H101.742L99.4686 4.07598H96.3382C91.2514 4.07598 89.5797 5.02161 89.3058 6.52158C89.021 8.08675 90.4732 9.06499 94.5557 10.4671C98.2686 11.7388 100.577 13.9236 100.014 17.0213C99.1947 21.5212 95.3535 23.9994 88.4406 23.9994H81.9516L82.6929 19.9234H88.2363C93.3557 19.9234 95.097 18.7821 95.4056 17.0865C95.7317 15.2931 94.1339 14.5757 90.0993 13.2714Z" fill="var(--fill-0, #62748E)"/>
<g id="&#236;&#132;&#160;&#235;&#176;&#149;DB&#236;&#161;&#176;&#237;&#154;&#140;&#236;&#178;&#180;&#234;&#179;&#132;">
<path d="M7.07702 32.7331V32.8981L6.15793 34.7491L9.33799 41.7686V41.8969H6.58071L4.68738 37.7549L2.62861 41.8969H0V41.7686L4.44841 32.7331H7.07702ZM4.20945 43.1249V45.7274H13.8048V48H1.58084V43.1249H4.20945ZM14.6503 32.2016V32.6048C13.8599 32.8064 13.5474 33.4112 13.4923 34.4926V43.4914H10.8821V37.9931H8.05126V35.7205H10.8821V32.2016H14.6503Z" fill="var(--fill-0, #90A1B9)"/>
<path d="M24.4727 32.9164V40.5223H16.3663V32.9164H18.9582V34.5109H21.8809V32.9164H24.4727ZM18.9582 36.7835V38.2497H21.8809V36.7835H18.9582ZM29.3072 48H26.6786V44.1145H17.7817V41.8419H29.3072V48ZM30.4652 32.2016V32.6048C29.6748 32.8064 29.3623 33.4112 29.3072 34.4926V35.9038H31.4946V38.1764H29.3072V41.0722H26.6969V32.2016H30.4652Z" fill="var(--fill-0, #90A1B9)"/>
<path d="M35.6377 35.8855V44.866H37.0715C39.1854 44.866 40.9317 43.4914 40.9317 40.2108C40.9317 37.3517 39.4611 35.9038 37.0899 35.8855H35.6377ZM33.0459 47.1203V33.6312H37.4759C40.7662 33.6312 43.5051 36.1604 43.5235 40.2108C43.5051 44.2062 41.1523 47.1569 37.6413 47.1203H33.0459Z" fill="var(--fill-0, #90A1B9)"/>
<path d="M50.8586 47.1203H45.2521V33.6312H50.3623C53.3769 33.6312 55.0313 34.5292 55.0313 37.2784C55.0313 38.2131 54.7004 39.2944 53.6527 39.8625C55.0681 40.394 55.7298 41.622 55.7298 43.0515C55.7298 45.819 54.3144 47.1203 50.8586 47.1203ZM49.9763 38.9828C51.7961 38.9828 52.4211 38.5796 52.4211 37.4433C52.4211 36.4536 51.8696 35.8855 49.9763 35.8855H47.844V38.9828H49.9763ZM47.844 41.2188V44.866H50.3439C52.1086 44.866 53.1196 44.4444 53.1196 43.0515C53.1196 41.9519 52.6416 41.2188 50.3255 41.2188H47.844Z" fill="var(--fill-0, #90A1B9)"/>
<path d="M64.4435 35.2257H58.7819V32.9164H69.9213V33.6495L66.3736 37.1134L70.3809 41.6586V41.9152H66.9802L64.4251 39.0195L61.4473 41.9152H58.0466V41.6586L64.4435 35.2257ZM72.0904 44.3345V44.7377C71.0242 44.8477 70.1971 45.5074 70.1971 46.6254H57.1459V44.3345H63.0097V41.5853H65.62V44.3345H72.0904Z" fill="var(--fill-0, #90A1B9)"/>
<path d="M80.0476 32L79.7167 33.4479H82.9703V35.7022H81.8858C82.3637 36.307 82.6578 37.0767 82.6578 38.0481C82.6578 40.1924 81.4446 41.6403 79.5513 42.0985V43.7847H83.246V46.0756H73.3198V43.7847H76.941V42.1168C74.9742 41.6953 73.7242 40.2291 73.7242 38.0481C73.7242 37.0767 73.9999 36.307 74.4963 35.7022H73.3933V33.4479H76.9594L77.2903 32H80.0476ZM78.191 39.9725C79.1652 39.9725 80.0476 39.2211 80.0476 37.8648C80.0476 36.3436 79.202 35.7022 78.191 35.7022C77.18 35.7022 76.3344 36.3436 76.3344 37.8648C76.3344 39.2211 77.2168 39.9725 78.191 39.9725ZM87.6393 32.2016V32.6048C86.8489 32.8064 86.5364 33.4112 86.4812 34.4926V47.9633H83.871V32.2016H87.6393Z" fill="var(--fill-0, #90A1B9)"/>
<path d="M93.7118 32L93.3441 34.126H95.4213V34.4559L93.7853 38.5246L95.9911 44.5178V44.7377H93.6566L92.5721 41.567L91.3037 44.7194H89.0428V44.4994L92.2412 36.3986H89.3553V34.126H91.1015L91.4692 32H93.7118ZM95.0169 37.7549H97.0205V32.5682H99.4837V47.4502H97.0205V39.9175H95.0169V37.7549ZM104.006 32.2016V32.6048C103.215 32.8064 102.903 33.4112 102.848 34.4926V48H100.384V32.2016H104.006Z" fill="var(--fill-0, #90A1B9)"/>
<path d="M111.563 33.4662V33.8694L111.232 35.299H113.088V32.5682H115.478V47.4502H113.088V41.9702H109.761L109.191 44.5178H106.655L108.53 35.7388H105.092V33.4662H111.563ZM110.736 37.5716L110.258 39.6976H113.088V37.5716H110.736ZM120 32.2016V32.6048C119.21 32.8064 118.897 33.4112 118.842 34.4926V48H116.452V32.2016H120Z" fill="var(--fill-0, #90A1B9)"/>
</g>
</g>
</svg>
